<svg xmlns="http://www.w3.org/2000/svg" version="1.1" xmlns:xlink="http://www.w3.org/1999/xlink" xmlns:svgjs="http://svgjs.dev/svgjs" width="1440" height="560" preserveAspectRatio="none" viewBox="0 0 1440 560">
    <g mask="url(&quot;#SvgjsMask1016&quot;)" fill="none">
        <rect width="1440" height="560" x="0" y="0" fill="rgba(38, 43, 40, 1)"></rect>
        <path d="M0,675.309C125.444,662.761,240.535,606.853,341.372,531.186C437.031,459.404,512.434,365.459,559.458,255.496C605.705,147.35,610.835,30.413,605.772,-87.097C600.222,-215.907,617.363,-364.517,528.711,-458.131C440.197,-551.6,291.495,-549.041,162.893,-554.764C56.378,-559.504,-42.791,-523.615,-143.301,-488.039C-238.418,-454.372,-332.011,-420.099,-407.31,-352.936C-490.21,-278.992,-587.694,-196.363,-594.608,-85.492C-601.497,24.99,-473.632,95.758,-441.903,201.81C-402.319,334.119,-482.503,503.205,-388.276,604.169C-296.644,702.353,-133.633,688.676,0,675.309" fill="#1e2220"></path>
        <path d="M1440 1045.969C1536.405 1058.893 1631.942 1035.58 1721.964 998.744 1827.004 955.7629999999999 1960.5 922.24 2001.2469999999998 816.313 2042.243 709.738 1932.1689999999999 604.593 1917.125 491.4 1901.837 376.376 1974.394 248.671 1912.737 150.37099999999998 1850.566 51.25 1722.571 3.3920000000000528 1605.857-4.856999999999971 1497.541-12.511999999999944 1412.611 81.68900000000002 1307.155 107.57100000000003 1194.354 135.255 1040.882 60.61500000000001 968.61 151.538 895.325 243.736 1006.3779999999999 378.975 998.0419999999999 496.456 990.601 601.319 877.906 701.139 922.869 796.1659999999999 967.961 891.466 1107.836 883.281 1202.769 929.139 1283.78 968.2719999999999 1350.83 1034.0140000000001 1440 1045.969" fill="#2e3430"></path>
    </g>
    <defs>
        <mask id="SvgjsMask1016">
            <rect width="1440" height="560" fill="#ffffff"></rect>
        </mask>
    </defs>
</svg>