<svg xmlns="http://www.w3.org/2000/svg" version="1.1" xmlns:xlink="http://www.w3.org/1999/xlink" xmlns:svgjs="http://svgjs.dev/svgjs" width="1440" height="560" preserveAspectRatio="none" viewBox="0 0 1440 560">
    <g mask="url(&quot;#SvgjsMask1007&quot;)" fill="none">
        <rect width="1440" height="560" x="0" y="0" fill="rgba(242, 243, 246, 1)"></rect>
        <path d="M0,557.343C100.428,534.335,174.771,459.623,269.803,419.822C391.829,368.715,560.62,399.029,636.596,290.724C711.051,184.587,678.505,29.004,627.608,-90.236C581.536,-198.171,464.366,-249.153,374.126,-324.182C299.717,-386.048,226.339,-440.394,144.449,-491.95C30.123,-563.927,-68.2,-707.879,-201.62,-686.656C-331.624,-665.976,-401.128,-515.296,-457.276,-396.232C-504.778,-295.503,-471.767,-180.251,-492.071,-70.749C-513.585,45.278,-603.338,149.164,-579.846,264.807C-554.774,388.226,-475.407,508.059,-362.966,564.786C-252.689,620.421,-120.397,584.925,0,557.343" fill="#b8bece"></path>
        <path d="M1440 883.379C1521.206 899.009 1600.747 959.4300000000001 1678.371 930.913 1756.909 902.06 1803.857 817.856 1832.421 739.213 1859.811 663.803 1864.097 577.629 1833.647 503.402 1805.722 435.329 1728.946 406.46299999999997 1675.272 356.13599999999997 1628.363 312.151 1595.38 255.25400000000002 1538.013 226.199 1472.955 193.248 1396.811 154.793 1328.5819999999999 180.54399999999998 1260.311 206.31099999999998 1253.402 302.062 1201.391 353.245 1142.541 411.159 1035.297 420.325 1006.347 497.65 977.457 574.816 1011.348 666.728 1058.81 734.083 1103.243 797.139 1182.282 821.123 1254.108 849.254 1313.982 872.704 1376.857 871.226 1440 883.379" fill="#ffffff"></path>
    </g>
    <defs>
        <mask id="SvgjsMask1007">
            <rect width="1440" height="560" fill="#ffffff"></rect>
        </mask>
    </defs>
</svg>