<svg xmlns="http://www.w3.org/2000/svg" version="1.1" xmlns:xlink="http://www.w3.org/1999/xlink" xmlns:svgjs="http://svgjs.dev/svgjs" width="1440" height="560" preserveAspectRatio="none" viewBox="0 0 1440 560">
    <g mask="url(&quot;#SvgjsMask1010&quot;)" fill="none">
        <path d="M0 497.44L10 463.97L20 455.36L30 471.87L40 419.48L50 444.29L60 407.86L70 446.12L80 440.08L90 399.88L100 419.43L110 401.29L120 349.68L130 408.02L140 381.44L150 424.18L160 493.52L170 527.73L180 549.08L190 510.39L200 528.34L210 517.77L220 498.73L230 465.77L240 487.98L250 445.78L260 392.92L270 415.09L280 439.34L290 450.16L300 512.01L310 480.58L320 439.13L330 433.67L340 468.95L350 453.68L360 487.55L370 505.33L380 555.3L390 558.31L400 559.69L410 503.22L420 530.7L430 496.55L440 434.8L450 381.59L460 340.06L470 289.55L480 326.45L490 374.13L500 381.08L510 377.63L520 342.31L530 324L540 360.55L550 430.43L560 474.74L570 426.53L580 390.42L590 414.99L600 422.57L610 451.01L620 436.95L630 430.28L640 400.04L650 336.4L660 300.49L670 272.9L680 237.1L690 218.64L700 242.66L710 252.58L720 298.1L730 311.02L740 270.96L750 246.73L760 298.2L770 352.04L780 400.65L790 401.27L800 461.88L810 527.25L820 475.6L830 482.85L840 435.35L850 462.07L860 461.59L870 491.29L880 487.69L890 496.63L900 447.95L910 401.42L920 397.17L930 458.42L940 450.45L950 398.62L960 356.64L970 407.7L980 463.1L990 470.21L1000 465.68L1010 400.33L1020 353.96L1030 326.44L1040 344.96L1050 345.79L1060 296.56L1070 278.16L1080 274.88L1090 332.7L1100 318.47L1110 327.3L1120 300.27L1130 369.69L1140 373.15L1150 392.05L1160 408.23L1170 430.94L1180 386.59L1190 406.92L1200 408.85L1210 418.33L1220 403.1L1230 361.89L1240 392.95L1250 336.67L1260 302.18L1270 255.32L1280 194.9L1290 197.8L1300 255.44L1310 253.86L1320 286.48L1330 229.27L1340 243.15L1350 234.29L1360 289.74L1370 246.72L1380 268.35L1390 301.26L1400 331.68L1410 369.85L1420 346.04L1430 296.16L1440 232.45" stroke="#224b75" stroke-width="2"></path>
        <path d="M0 497.44L10 463.97L20 455.36L30 471.87L40 419.48L50 444.29L60 407.86L70 446.12L80 440.08L90 399.88L100 419.43L110 401.29L120 349.68L130 408.02L140 381.44L150 424.18L160 493.52L170 527.73L180 549.08L190 510.39L200 528.34L210 517.77L220 498.73L230 465.77L240 487.98L250 445.78L260 392.92L270 415.09L280 439.34L290 450.16L300 512.01L310 480.58L320 439.13L330 433.67L340 468.95L350 453.68L360 487.55L370 505.33L380 555.3L390 558.31L400 559.69L410 503.22L420 530.7L430 496.55L440 434.8L450 381.59L460 340.06L470 289.55L480 326.45L490 374.13L500 381.08L510 377.63L520 342.31L530 324L540 360.55L550 430.43L560 474.74L570 426.53L580 390.42L590 414.99L600 422.57L610 451.01L620 436.95L630 430.28L640 400.04L650 336.4L660 300.49L670 272.9L680 237.1L690 218.64L700 242.66L710 252.58L720 298.1L730 311.02L740 270.96L750 246.73L760 298.2L770 352.04L780 400.65L790 401.27L800 461.88L810 527.25L820 475.6L830 482.85L840 435.35L850 462.07L860 461.59L870 491.29L880 487.69L890 496.63L900 447.95L910 401.42L920 397.17L930 458.42L940 450.45L950 398.62L960 356.64L970 407.7L980 463.1L990 470.21L1000 465.68L1010 400.33L1020 353.96L1030 326.44L1040 344.96L1050 345.79L1060 296.56L1070 278.16L1080 274.88L1090 332.7L1100 318.47L1110 327.3L1120 300.27L1130 369.69L1140 373.15L1150 392.05L1160 408.23L1170 430.94L1180 386.59L1190 406.92L1200 408.85L1210 418.33L1220 403.1L1230 361.89L1240 392.95L1250 336.67L1260 302.18L1270 255.32L1280 194.9L1290 197.8L1300 255.44L1310 253.86L1320 286.48L1330 229.27L1340 243.15L1350 234.29L1360 289.74L1370 246.72L1380 268.35L1390 301.26L1400 331.68L1410 369.85L1420 346.04L1430 296.16L1440 232.45L1440 560L0 560z" fill="url(&quot;#SvgjsLinearGradient1011&quot;)"></path>
    </g>
    <defs>
        <mask id="SvgjsMask1010">
            <rect width="1440" height="560" fill="#ffffff"></rect>
        </mask>
        <linearGradient x1="50%" y1="0%" x2="50%" y2="100%" id="SvgjsLinearGradient1011">
            <stop stop-opacity="0.65" stop-color="#224b75" offset="0"></stop>
            <stop stop-opacity="0" stop-color="#508dcc" offset="0.8"></stop>
        </linearGradient>
    </defs>
</svg>